<svg width="40" height="40" viewBox="0 0 40 40" fill="none" xmlns="http://www.w3.org/2000/svg">
<circle cx="20" cy="20" r="20" fill="currentColor"/>
<path d="M18.5734 10.3906C19.0224 9.00861 20.9776 9.00861 21.4266 10.3906L23.0309 15.3283C23.2318 15.9463 23.8077 16.3647 24.4575 16.3647H29.6493C31.1024 16.3647 31.7066 18.2242 30.531 19.0783L26.3307 22.1299C25.805 22.5119 25.585 23.1889 25.7858 23.807L27.3902 28.7447C27.8392 30.1266 26.2575 31.2758 25.0819 30.4217L20.8817 27.3701C20.3559 26.9881 19.6441 26.9881 19.1183 27.3701L14.9181 30.4217C13.7425 31.2758 12.1608 30.1266 12.6098 28.7447L14.2142 23.807C14.415 23.189 14.195 22.5119 13.6693 22.1299L9.469 19.0783C8.29343 18.2242 8.89759 16.3647 10.3507 16.3647H15.5425C16.1923 16.3647 16.7682 15.9463 16.9691 15.3283L18.5734 10.3906Z" fill="white"/>
</svg>
