<svg width="65" height="66" viewBox="0 0 65 66" fill="none" xmlns="http://www.w3.org/2000/svg">
<rect width="65" height="66" rx="20" fill="currentColor"/>
<path d="M38.2311 21.4386H41.8336L26.8053 45.5614H23.2028L38.2311 21.4386ZM19 26.7566C19 25.6966 19.2668 24.7342 19.8005 23.8692C20.3342 22.992 21.0741 22.2975 22.0202 21.7858C22.9784 21.2619 24.0883 21 25.3497 21C26.5991 21 27.6968 21.2619 28.6429 21.7858C29.589 22.2975 30.3288 22.992 30.8625 23.8692C31.3962 24.7342 31.6631 25.6966 31.6631 26.7566C31.6631 27.7922 31.3962 28.7485 30.8625 29.6257C30.341 30.4907 29.6071 31.1913 28.6611 31.7273C27.715 32.2512 26.6112 32.5132 25.3497 32.5132C24.0761 32.5132 22.9602 32.2512 22.002 31.7273C21.0559 31.1913 20.316 30.4907 19.7823 29.6257C19.2608 28.7485 19 27.7922 19 26.7566ZM22.748 26.7566C22.748 27.5485 22.9845 28.1881 23.4575 28.6754C23.9427 29.1628 24.5674 29.4064 25.3315 29.4064C26.0836 29.4064 26.69 29.1628 27.1509 28.6754C27.624 28.1881 27.8605 27.5485 27.8605 26.7566C27.8605 25.9769 27.624 25.3372 27.1509 24.8377C26.69 24.326 26.0836 24.0702 25.3315 24.0702C24.5795 24.0702 23.9609 24.326 23.4757 24.8377C22.9906 25.3372 22.748 25.9769 22.748 26.7566ZM33.3187 40.2434C33.3187 39.1835 33.5856 38.221 34.1193 37.356C34.653 36.491 35.3989 35.7965 36.3571 35.2727C37.3154 34.7488 38.4191 34.4868 39.6685 34.4868C40.9178 34.4868 42.0155 34.7488 42.9616 35.2727C43.9198 35.7965 44.6658 36.491 45.1995 37.356C45.7332 38.221 46 39.1835 46 40.2434C46 41.279 45.7332 42.2354 45.1995 43.1126C44.6779 43.9898 43.938 44.6903 42.9798 45.2142C42.0337 45.7381 40.9299 46 39.6685 46C38.3949 46 37.279 45.7381 36.3208 45.2142C35.3747 44.6903 34.6348 43.9898 34.1011 43.1126C33.5795 42.2354 33.3187 41.279 33.3187 40.2434ZM37.0849 40.2434C37.0849 41.0353 37.3214 41.675 37.7945 42.1623C38.2675 42.6496 38.8922 42.8933 39.6685 42.8933C40.4084 42.8933 41.0088 42.6496 41.4697 42.1623C41.9427 41.675 42.1792 41.0353 42.1792 40.2434C42.1792 39.4637 41.9427 38.8241 41.4697 38.3246C41.0088 37.8129 40.4084 37.557 39.6685 37.557C38.9043 37.557 38.2796 37.8129 37.7945 38.3246C37.3214 38.8241 37.0849 39.4637 37.0849 40.2434Z" fill="white"/>
</svg>
