<svg width="65" height="66" viewBox="0 0 65 66" fill="none" xmlns="http://www.w3.org/2000/svg">
<rect width="65" height="66" rx="20" fill="currentColor"/>
<path d="M50 42.8477C49.5678 43.5563 49.1439 44.2734 48.7034 44.9734C48.4291 45.4174 48.1465 45.8442 47.8556 46.2796C47.3735 47.0053 46.775 47.1846 45.9854 46.809C42.2535 45.0417 38.5215 43.2745 34.7895 41.5073C34.2908 41.2683 33.7838 41.0463 33.2851 40.7902C33.0773 40.6792 32.9111 40.6963 32.7033 40.7902C28.5141 42.7794 24.325 44.7686 20.1276 46.7492C19.1884 47.1931 18.6398 47.0309 18.0663 46.1516C17.4928 45.2722 16.9276 44.3929 16.3541 43.5136C15.7722 42.6172 15.9052 41.9086 16.7697 41.311C19.978 39.0827 23.178 36.863 26.378 34.6263C26.5443 34.5068 26.7022 34.3189 26.777 34.1226C27.6248 31.937 29.1458 30.5284 31.3568 29.9137C31.5895 29.8454 31.6726 29.76 31.6643 29.5039C31.6477 28.7782 31.656 28.0526 31.656 27.3269C31.6643 26.4646 32.163 25.9268 32.9942 25.867C34.4737 25.7561 35.4711 24.9536 35.8617 23.562C36.1942 22.3668 35.6706 20.9581 34.6316 20.2495C33.5926 19.5409 32.1547 19.5921 31.2071 20.3349C30.3926 20.9752 30.0103 21.8289 29.9853 22.8619C29.977 23.1266 29.9936 23.3827 29.977 23.6473C29.9271 24.3559 29.3619 24.8938 28.6804 24.9023C27.9988 24.9109 27.3921 24.3901 27.3422 23.69C27.176 21.3935 27.8575 19.4555 29.7194 18.064C33.069 15.554 38.0228 17.7396 38.5464 21.957C38.9121 24.9023 37.308 27.4464 34.5318 28.3599C34.4404 28.3941 34.3157 28.4965 34.3074 28.5734C34.2825 28.9831 34.2991 29.3844 34.2991 29.7173C35.0222 30.0418 35.7287 30.2979 36.3604 30.665C37.6737 31.4248 38.588 32.5773 39.1365 34.0201C39.2446 34.2933 39.3859 34.4982 39.6353 34.6604C42.7937 36.8374 45.9356 39.0315 49.094 41.217C49.493 41.4902 49.8171 41.8061 49.9668 42.2842C50 42.4806 50 42.6684 50 42.8477ZM19.8118 43.9063C19.9364 43.8551 20.0362 43.8124 20.1359 43.7612C24.1671 41.8488 28.1983 39.945 32.2295 38.0241C32.7781 37.768 33.2685 37.768 33.817 38.0241C37.4991 39.7828 41.1979 41.5244 44.88 43.2745C45.3205 43.4794 45.761 43.6843 46.2182 43.9063C46.4343 43.5733 46.6337 43.266 46.8415 42.9416C46.7335 42.8647 46.6421 42.7964 46.5589 42.7367C43.6997 40.756 40.8571 38.7583 37.9812 36.7947C37.3578 36.3679 36.9589 35.8642 36.7428 35.1214C36.1776 33.2091 34.0248 32.0309 32.1381 32.5261C30.642 32.9188 29.6612 33.875 29.2123 35.3861C29.0544 35.9154 28.7801 36.2996 28.3313 36.6069C25.3889 38.6388 22.4466 40.6792 19.5125 42.7281C19.4128 42.7964 19.3131 42.8647 19.205 42.9501C19.4045 43.2745 19.604 43.5904 19.8118 43.9063Z" fill="white"/>
</svg>
