<svg width="65" height="66" viewBox="0 0 65 66" fill="none" xmlns="http://www.w3.org/2000/svg">
<rect width="65" height="66" rx="20" fill="currentColor"/>
<path d="M31.5734 19.3906C32.0224 18.0086 33.9776 18.0086 34.4266 19.3906L37.1535 27.7832C37.3543 28.4012 37.9303 28.8197 38.5801 28.8197H47.4046C48.8577 28.8197 49.4619 30.6791 48.2863 31.5332L41.1471 36.7201C40.6214 37.1021 40.4014 37.7791 40.6022 38.3972L43.3291 46.7898C43.7781 48.1717 42.1964 49.3209 41.0209 48.4668L33.8817 43.2799C33.3559 42.8979 32.6441 42.8979 32.1183 43.2799L24.9791 48.4668C23.8036 49.3209 22.2219 48.1717 22.6709 46.7898L25.3978 38.3972C25.5986 37.7791 25.3786 37.1021 24.8529 36.7201L17.7137 31.5332C16.5381 30.6791 17.1423 28.8197 18.5954 28.8197H27.4199C28.0697 28.8197 28.6457 28.4012 28.8465 27.7832L31.5734 19.3906Z" fill="white"/>
</svg>
