<svg width="393" height="190" viewBox="0 0 393 190" fill="none" xmlns="http://www.w3.org/2000/svg">
<path d="M0 190L0.000488281 44C131 44 262 44 393 44V190H0Z" fill="#333333"/>
<path d="M26 44H212.535C203.618 42.2048 196.833 33.1109 196.833 22.1608C196.833 9.92216 188.357 0 177.9 0L60.6337 1.02517e-05C50.1782 1.11658e-05 41.7005 9.92217 41.7005 22.1609C41.7005 33.1109 34.9168 42.2048 26 44Z" fill="#555555"/>
<path d="M76.832 22.472V27H75.168V22.472L72 16.52H73.856L75.936 20.92H76.064L78.144 16.52H80L76.832 22.472ZM83.504 23.208C83.504 21.9173 83.792 20.9413 84.368 20.28C84.944 19.608 85.744 19.272 86.768 19.272C87.792 19.272 88.5813 19.576 89.136 20.184C89.7013 20.7813 89.9947 21.6613 90.016 22.824L89.952 24.008H85.28C85.376 25.16 85.952 25.736 87.008 25.736C87.744 25.736 88.5227 25.6027 89.344 25.336L89.68 26.728C89.3387 26.8453 88.896 26.9467 88.352 27.032C87.808 27.128 87.36 27.176 87.008 27.176C84.672 27.176 83.504 25.8533 83.504 23.208ZM86.832 20.76C86.3307 20.76 85.952 20.9093 85.696 21.208C85.4507 21.496 85.312 21.9813 85.28 22.664H88.24C88.24 21.3947 87.7707 20.76 86.832 20.76ZM94.448 26.648L94.8 25.192C95.8133 25.512 96.6187 25.672 97.216 25.672C97.8133 25.672 98.2187 25.6133 98.432 25.496C98.6453 25.3893 98.752 25.1973 98.752 24.92C98.752 24.6427 98.656 24.4453 98.464 24.328C98.272 24.2107 97.9093 24.088 97.376 23.96C96.32 23.704 95.584 23.4213 95.168 23.112C94.752 22.792 94.544 22.2747 94.544 21.56C94.544 20.0347 95.5253 19.272 97.488 19.272C98.3307 19.272 99.3067 19.4107 100.416 19.688L100.112 21.208C99.056 20.9093 98.24 20.76 97.664 20.76C97.088 20.76 96.6987 20.8133 96.496 20.92C96.304 21.016 96.208 21.1867 96.208 21.432C96.208 21.6773 96.304 21.8587 96.496 21.976C96.6987 22.0827 97.2107 22.248 98.032 22.472C98.8533 22.696 99.456 22.9573 99.84 23.256C100.224 23.544 100.416 24.04 100.416 24.744C100.416 26.3547 99.424 27.16 97.44 27.16C96.512 27.16 95.5147 26.9893 94.448 26.648ZM105.104 20.872V19.4H106.4V17.576L108.048 17.416V19.4H111.04V20.872H108.048V24.072C108.048 24.6587 108.107 25.0747 108.224 25.32C108.341 25.5547 108.581 25.672 108.944 25.672C109.573 25.672 110.309 25.5707 111.152 25.368L111.424 26.792C110.496 27.0373 109.669 27.16 108.944 27.16C107.92 27.16 107.237 26.9307 106.896 26.472C106.565 26.0133 106.4 25.2133 106.4 24.072V20.872H105.104ZM115.664 23.208C115.664 21.9173 115.952 20.9413 116.528 20.28C117.104 19.608 117.904 19.272 118.928 19.272C119.952 19.272 120.741 19.576 121.296 20.184C121.861 20.7813 122.155 21.6613 122.176 22.824L122.112 24.008H117.44C117.536 25.16 118.112 25.736 119.168 25.736C119.904 25.736 120.683 25.6027 121.504 25.336L121.84 26.728C121.499 26.8453 121.056 26.9467 120.512 27.032C119.968 27.128 119.52 27.176 119.168 27.176C116.832 27.176 115.664 25.8533 115.664 23.208ZM118.992 20.76C118.491 20.76 118.112 20.9093 117.856 21.208C117.611 21.496 117.472 21.9813 117.44 22.664H120.4C120.4 21.3947 119.931 20.76 118.992 20.76ZM126.576 27V25.528H128.128V20.872H126.576V19.4H129.776L129.808 20.168C130.619 19.7093 131.547 19.4213 132.592 19.304H133.024V20.904H132.592C131.419 21.0107 130.491 21.256 129.808 21.64V25.56H132.192V27H126.576ZM143.616 16.328V25.672L143.776 27L142.16 27.16L142.016 26.424C141.323 26.9253 140.645 27.176 139.984 27.176C138.992 27.176 138.245 26.888 137.744 26.312C137.243 25.7253 136.992 24.7387 136.992 23.352C136.992 21.9653 137.296 20.9413 137.904 20.28C138.512 19.608 139.301 19.272 140.272 19.272C140.837 19.272 141.408 19.3947 141.984 19.64V16.328H143.616ZM140.096 25.64C140.661 25.64 141.291 25.352 141.984 24.776V21.208C141.429 20.9413 140.885 20.808 140.352 20.808C139.296 20.808 138.768 21.656 138.768 23.352C138.768 24.8773 139.211 25.64 140.096 25.64ZM150.496 25.624C150.795 25.624 151.125 25.5547 151.488 25.416C151.851 25.2773 152.139 25.1227 152.352 24.952V23.832C151.712 23.7787 151.189 23.752 150.784 23.752C149.899 23.752 149.456 24.0827 149.456 24.744C149.456 25.3307 149.803 25.624 150.496 25.624ZM150.24 27.176C148.533 27.176 147.68 26.3653 147.68 24.744C147.68 23.88 147.952 23.2773 148.496 22.936C149.051 22.584 149.813 22.408 150.784 22.408C151.243 22.408 151.765 22.4347 152.352 22.488C152.352 21.848 152.261 21.4107 152.08 21.176C151.899 20.9413 151.584 20.824 151.136 20.824C150.688 20.824 150.165 20.8773 149.568 20.984C148.971 21.0907 148.512 21.1973 148.192 21.304L147.888 19.784C149.008 19.4427 150.101 19.272 151.168 19.272C152.235 19.272 152.971 19.5067 153.376 19.976C153.792 20.4453 154 21.24 154 22.36V25.608L154.176 27.016L152.528 27.176L152.368 26.44C151.472 26.9307 150.763 27.176 150.24 27.176ZM158.384 19.4H160.128L161.792 24.84H161.92L163.504 19.4H165.232L162.4 28.296C162.133 29.128 161.792 29.6613 161.376 29.896C160.971 30.1413 160.235 30.2747 159.168 30.296V28.824C159.68 28.8027 160.064 28.728 160.32 28.6C160.587 28.4827 160.763 28.28 160.848 27.992L161.024 27.432L158.384 19.4Z" fill="white"/>
<path d="M181 44H367.535C358.618 42.2048 351.833 33.1109 351.833 22.1608C351.833 9.92216 343.357 -9.14171e-07 332.9 0L215.634 1.02517e-05C205.178 1.11658e-05 196.701 9.92217 196.701 22.1609C196.701 33.1109 189.917 42.2048 181 44Z" fill="#333333"/>
<path d="M248.448 18.024V16.52H255.52V18.024H252.816V27H251.152V18.024H248.448ZM260.208 20.248C260.752 19.5973 261.589 19.272 262.72 19.272C263.851 19.272 264.688 19.5973 265.232 20.248C265.776 20.888 266.048 21.88 266.048 23.224C266.048 24.568 265.776 25.5707 265.232 26.232C264.688 26.8827 263.851 27.208 262.72 27.208C261.589 27.208 260.752 26.8827 260.208 26.232C259.664 25.5707 259.392 24.568 259.392 23.224C259.392 21.88 259.664 20.888 260.208 20.248ZM261.488 21.384C261.275 21.7573 261.168 22.3707 261.168 23.224C261.168 24.0773 261.28 24.696 261.504 25.08C261.728 25.464 262.133 25.656 262.72 25.656C263.307 25.656 263.712 25.464 263.936 25.08C264.16 24.696 264.272 24.0773 264.272 23.224C264.272 22.3707 264.16 21.7573 263.936 21.384C263.723 21.0107 263.317 20.824 262.72 20.824C262.123 20.824 261.712 21.0107 261.488 21.384ZM276.736 16.328V25.672L276.896 27L275.28 27.16L275.136 26.424C274.443 26.9253 273.765 27.176 273.104 27.176C272.112 27.176 271.365 26.888 270.864 26.312C270.363 25.7253 270.112 24.7387 270.112 23.352C270.112 21.9653 270.416 20.9413 271.024 20.28C271.632 19.608 272.421 19.272 273.392 19.272C273.957 19.272 274.528 19.3947 275.104 19.64V16.328H276.736ZM273.216 25.64C273.781 25.64 274.411 25.352 275.104 24.776V21.208C274.549 20.9413 274.005 20.808 273.472 20.808C272.416 20.808 271.888 21.656 271.888 23.352C271.888 24.8773 272.331 25.64 273.216 25.64ZM283.616 25.624C283.915 25.624 284.245 25.5547 284.608 25.416C284.971 25.2773 285.259 25.1227 285.472 24.952V23.832C284.832 23.7787 284.309 23.752 283.904 23.752C283.019 23.752 282.576 24.0827 282.576 24.744C282.576 25.3307 282.923 25.624 283.616 25.624ZM283.36 27.176C281.653 27.176 280.8 26.3653 280.8 24.744C280.8 23.88 281.072 23.2773 281.616 22.936C282.171 22.584 282.933 22.408 283.904 22.408C284.363 22.408 284.885 22.4347 285.472 22.488C285.472 21.848 285.381 21.4107 285.2 21.176C285.019 20.9413 284.704 20.824 284.256 20.824C283.808 20.824 283.285 20.8773 282.688 20.984C282.091 21.0907 281.632 21.1973 281.312 21.304L281.008 19.784C282.128 19.4427 283.221 19.272 284.288 19.272C285.355 19.272 286.091 19.5067 286.496 19.976C286.912 20.4453 287.12 21.24 287.12 22.36V25.608L287.296 27.016L285.648 27.176L285.488 26.44C284.592 26.9307 283.883 27.176 283.36 27.176ZM291.504 19.4H293.248L294.912 24.84H295.04L296.624 19.4H298.352L295.52 28.296C295.253 29.128 294.912 29.6613 294.496 29.896C294.091 30.1413 293.355 30.2747 292.288 30.296V28.824C292.8 28.8027 293.184 28.728 293.44 28.6C293.707 28.4827 293.883 28.28 293.968 27.992L294.144 27.432L291.504 19.4Z" fill="white"/>
<rect x="205" y="84" width="65" height="66" rx="20" fill="#555555"/>
<path d="M238 126.011C236.364 126.011 235.034 127.346 235.034 128.989C235.034 130.631 236.364 132 238.034 132C239.67 132 241 130.631 241 128.989C241 127.346 239.67 126.011 238 126.011Z" fill="white"/>
<path d="M238 102C236.364 102 235 103.372 235 105.011V120.137C235 121.783 236.364 123.114 238 123.114C239.636 123.114 240.966 121.783 240.966 120.137V105.011C240.966 103.372 239.636 102 238 102Z" fill="white"/>
<rect x="287" y="84" width="65" height="66" rx="20" fill="#555555"/>
<path d="M325.231 105.439H328.834L313.805 129.561H310.203L325.231 105.439ZM306 110.757C306 109.697 306.267 108.734 306.801 107.869C307.334 106.992 308.074 106.298 309.02 105.786C309.978 105.262 311.088 105 312.35 105C313.599 105 314.697 105.262 315.643 105.786C316.589 106.298 317.329 106.992 317.863 107.869C318.396 108.734 318.663 109.697 318.663 110.757C318.663 111.792 318.396 112.749 317.863 113.626C317.341 114.491 316.607 115.191 315.661 115.727C314.715 116.251 313.611 116.513 312.35 116.513C311.076 116.513 309.96 116.251 309.002 115.727C308.056 115.191 307.316 114.491 306.782 113.626C306.261 112.749 306 111.792 306 110.757ZM309.748 110.757C309.748 111.548 309.985 112.188 310.458 112.675C310.943 113.163 311.567 113.406 312.332 113.406C313.084 113.406 313.69 113.163 314.151 112.675C314.624 112.188 314.861 111.548 314.861 110.757C314.861 109.977 314.624 109.337 314.151 108.838C313.69 108.326 313.084 108.07 312.332 108.07C311.58 108.07 310.961 108.326 310.476 108.838C309.991 109.337 309.748 109.977 309.748 110.757ZM320.319 124.243C320.319 123.183 320.586 122.221 321.119 121.356C321.653 120.491 322.399 119.797 323.357 119.273C324.315 118.749 325.419 118.487 326.668 118.487C327.918 118.487 329.015 118.749 329.962 119.273C330.92 119.797 331.666 120.491 332.199 121.356C332.733 122.221 333 123.183 333 124.243C333 125.279 332.733 126.235 332.199 127.113C331.678 127.99 330.938 128.69 329.98 129.214C329.034 129.738 327.93 130 326.668 130C325.395 130 324.279 129.738 323.321 129.214C322.375 128.69 321.635 127.99 321.101 127.113C320.58 126.235 320.319 125.279 320.319 124.243ZM324.085 124.243C324.085 125.035 324.321 125.675 324.794 126.162C325.268 126.65 325.892 126.893 326.668 126.893C327.408 126.893 328.009 126.65 328.47 126.162C328.943 125.675 329.179 125.035 329.179 124.243C329.179 123.464 328.943 122.824 328.47 122.325C328.009 121.813 327.408 121.557 326.668 121.557C325.904 121.557 325.28 121.813 324.794 122.325C324.321 122.824 324.085 123.464 324.085 124.243Z" fill="white"/>
<rect x="41" y="84" width="65" height="66" rx="20" fill="#F36303"/>
<path d="M91 126.848C90.5678 127.556 90.1439 128.273 89.7034 128.973C89.4291 129.417 89.1465 129.844 88.8556 130.28C88.3735 131.005 87.775 131.185 86.9854 130.809C83.2535 129.042 79.5215 127.275 75.7895 125.507C75.2908 125.268 74.7838 125.046 74.2851 124.79C74.0773 124.679 73.9111 124.696 73.7033 124.79C69.5141 126.779 65.325 128.769 61.1276 130.749C60.1884 131.193 59.6398 131.031 59.0663 130.152C58.4928 129.272 57.9276 128.393 57.3541 127.514C56.7722 126.617 56.9052 125.909 57.7697 125.311C60.978 123.083 64.178 120.863 67.378 118.626C67.5443 118.507 67.7022 118.319 67.777 118.123C68.6248 115.937 70.1458 114.528 72.3568 113.914C72.5895 113.845 72.6726 113.76 72.6643 113.504C72.6477 112.778 72.656 112.053 72.656 111.327C72.6643 110.465 73.163 109.927 73.9942 109.867C75.4737 109.756 76.4711 108.954 76.8617 107.562C77.1942 106.367 76.6706 104.958 75.6316 104.25C74.5926 103.541 73.1547 103.592 72.2071 104.335C71.3926 104.975 71.0103 105.829 70.9853 106.862C70.977 107.127 70.9936 107.383 70.977 107.647C70.9271 108.356 70.3619 108.894 69.6804 108.902C68.9988 108.911 68.3921 108.39 68.3422 107.69C68.176 105.394 68.8575 103.456 70.7194 102.064C74.069 99.554 79.0228 101.74 79.5464 105.957C79.9121 108.902 78.308 111.446 75.5318 112.36C75.4404 112.394 75.3157 112.497 75.3074 112.573C75.2825 112.983 75.2991 113.384 75.2991 113.717C76.0222 114.042 76.7287 114.298 77.3604 114.665C78.6737 115.425 79.588 116.577 80.1365 118.02C80.2446 118.293 80.3859 118.498 80.6353 118.66C83.7937 120.837 86.9356 123.032 90.094 125.217C90.493 125.49 90.8171 125.806 90.9668 126.284C91 126.481 91 126.668 91 126.848ZM60.8118 127.906C60.9364 127.855 61.0362 127.812 61.1359 127.761C65.1671 125.849 69.1983 123.945 73.2295 122.024C73.7781 121.768 74.2685 121.768 74.817 122.024C78.4991 123.783 82.1979 125.524 85.88 127.275C86.3205 127.479 86.761 127.684 87.2182 127.906C87.4343 127.573 87.6337 127.266 87.8415 126.942C87.7335 126.865 87.6421 126.796 87.5589 126.737C84.6997 124.756 81.8571 122.758 78.9812 120.795C78.3578 120.368 77.9589 119.864 77.7428 119.121C77.1776 117.209 75.0248 116.031 73.1381 116.526C71.642 116.919 70.6612 117.875 70.2123 119.386C70.0544 119.915 69.7801 120.3 69.3313 120.607C66.3889 122.639 63.4466 124.679 60.5125 126.728C60.4128 126.796 60.3131 126.865 60.205 126.95C60.4045 127.275 60.604 127.59 60.8118 127.906Z" fill="white"/>
<rect x="123" y="84" width="65" height="66" rx="20" fill="#555555"/>
<path d="M154.573 103.391C155.022 102.009 156.978 102.009 157.427 103.391L160.154 111.783C160.354 112.401 160.93 112.82 161.58 112.82H170.405C171.858 112.82 172.462 114.679 171.286 115.533L164.147 120.72C163.621 121.102 163.401 121.779 163.602 122.397L166.329 130.79C166.778 132.172 165.196 133.321 164.021 132.467L156.882 127.28C156.356 126.898 155.644 126.898 155.118 127.28L147.979 132.467C146.804 133.321 145.222 132.172 145.671 130.79L148.398 122.397C148.599 121.779 148.379 121.102 147.853 120.72L140.714 115.533C139.538 114.679 140.142 112.82 141.595 112.82H150.42C151.07 112.82 151.646 112.401 151.846 111.783L154.573 103.391Z" fill="white"/>
</svg>
