<svg width="102" height="23" viewBox="0 0 102 23" fill="none" xmlns="http://www.w3.org/2000/svg">
<g filter="url(#filter0_d_551_1061)">
<mask id="path-1-outside-1_551_1061" maskUnits="userSpaceOnUse" x="2" y="-1" width="97" height="17" fill="black">
<rect fill="white" x="2" y="-1" width="97" height="17"/>
<path d="M8.832 6.472V11H7.168V6.472L4 0.52H5.856L7.936 4.92H8.064L10.144 0.52H12L8.832 6.472ZM15.504 7.208C15.504 5.91733 15.792 4.94133 16.368 4.28C16.944 3.608 17.744 3.272 18.768 3.272C19.792 3.272 20.5813 3.576 21.136 4.184C21.7013 4.78133 21.9947 5.66133 22.016 6.824L21.952 8.008H17.28C17.376 9.16 17.952 9.736 19.008 9.736C19.744 9.736 20.5227 9.60267 21.344 9.336L21.68 10.728C21.3387 10.8453 20.896 10.9467 20.352 11.032C19.808 11.128 19.36 11.176 19.008 11.176C16.672 11.176 15.504 9.85333 15.504 7.208ZM18.832 4.76C18.3307 4.76 17.952 4.90933 17.696 5.208C17.4507 5.496 17.312 5.98133 17.28 6.664H20.24C20.24 5.39467 19.7707 4.76 18.832 4.76ZM26.448 10.648L26.8 9.192C27.8133 9.512 28.6187 9.672 29.216 9.672C29.8133 9.672 30.2187 9.61333 30.432 9.496C30.6453 9.38933 30.752 9.19733 30.752 8.92C30.752 8.64267 30.656 8.44533 30.464 8.328C30.272 8.21067 29.9093 8.088 29.376 7.96C28.32 7.704 27.584 7.42133 27.168 7.112C26.752 6.792 26.544 6.27467 26.544 5.56C26.544 4.03467 27.5253 3.272 29.488 3.272C30.3307 3.272 31.3067 3.41067 32.416 3.688L32.112 5.208C31.056 4.90933 30.24 4.76 29.664 4.76C29.088 4.76 28.6987 4.81333 28.496 4.92C28.304 5.016 28.208 5.18667 28.208 5.432C28.208 5.67733 28.304 5.85867 28.496 5.976C28.6987 6.08267 29.2107 6.248 30.032 6.472C30.8533 6.696 31.456 6.95733 31.84 7.256C32.224 7.544 32.416 8.04 32.416 8.744C32.416 10.3547 31.424 11.16 29.44 11.16C28.512 11.16 27.5147 10.9893 26.448 10.648ZM37.104 4.872V3.4H38.4V1.576L40.048 1.416V3.4H43.04V4.872H40.048V8.072C40.048 8.65867 40.1067 9.07467 40.224 9.32C40.3413 9.55467 40.5813 9.672 40.944 9.672C41.5733 9.672 42.3093 9.57067 43.152 9.368L43.424 10.792C42.496 11.0373 41.6693 11.16 40.944 11.16C39.92 11.16 39.2373 10.9307 38.896 10.472C38.5653 10.0133 38.4 9.21333 38.4 8.072V4.872H37.104ZM47.664 7.208C47.664 5.91733 47.952 4.94133 48.528 4.28C49.104 3.608 49.904 3.272 50.928 3.272C51.952 3.272 52.7413 3.576 53.296 4.184C53.8613 4.78133 54.1547 5.66133 54.176 6.824L54.112 8.008H49.44C49.536 9.16 50.112 9.736 51.168 9.736C51.904 9.736 52.6827 9.60267 53.504 9.336L53.84 10.728C53.4987 10.8453 53.056 10.9467 52.512 11.032C51.968 11.128 51.52 11.176 51.168 11.176C48.832 11.176 47.664 9.85333 47.664 7.208ZM50.992 4.76C50.4907 4.76 50.112 4.90933 49.856 5.208C49.6107 5.496 49.472 5.98133 49.44 6.664H52.4C52.4 5.39467 51.9307 4.76 50.992 4.76ZM58.576 11V9.528H60.128V4.872H58.576V3.4H61.776L61.808 4.168C62.6187 3.70933 63.5467 3.42133 64.592 3.304H65.024V4.904H64.592C63.4187 5.01067 62.4907 5.256 61.808 5.64V9.56H64.192V11H58.576ZM75.616 0.327999V9.672L75.776 11L74.16 11.16L74.016 10.424C73.3227 10.9253 72.6453 11.176 71.984 11.176C70.992 11.176 70.2453 10.888 69.744 10.312C69.2427 9.72533 68.992 8.73867 68.992 7.352C68.992 5.96533 69.296 4.94133 69.904 4.28C70.512 3.608 71.3013 3.272 72.272 3.272C72.8373 3.272 73.408 3.39467 73.984 3.64V0.327999H75.616ZM72.096 9.64C72.6613 9.64 73.2907 9.352 73.984 8.776V5.208C73.4293 4.94133 72.8853 4.808 72.352 4.808C71.296 4.808 70.768 5.656 70.768 7.352C70.768 8.87733 71.2107 9.64 72.096 9.64ZM82.496 9.624C82.7947 9.624 83.1253 9.55467 83.488 9.416C83.8507 9.27733 84.1387 9.12267 84.352 8.952V7.832C83.712 7.77867 83.1893 7.752 82.784 7.752C81.8987 7.752 81.456 8.08267 81.456 8.744C81.456 9.33067 81.8027 9.624 82.496 9.624ZM82.24 11.176C80.5333 11.176 79.68 10.3653 79.68 8.744C79.68 7.88 79.952 7.27733 80.496 6.936C81.0507 6.584 81.8133 6.408 82.784 6.408C83.2427 6.408 83.7653 6.43467 84.352 6.488C84.352 5.848 84.2613 5.41067 84.08 5.176C83.8987 4.94133 83.584 4.824 83.136 4.824C82.688 4.824 82.1653 4.87733 81.568 4.984C80.9707 5.09067 80.512 5.19733 80.192 5.304L79.888 3.784C81.008 3.44267 82.1013 3.272 83.168 3.272C84.2347 3.272 84.9707 3.50667 85.376 3.976C85.792 4.44533 86 5.24 86 6.36V9.608L86.176 11.016L84.528 11.176L84.368 10.44C83.472 10.9307 82.7627 11.176 82.24 11.176ZM90.384 3.4H92.128L93.792 8.84H93.92L95.504 3.4H97.232L94.4 12.296C94.1333 13.128 93.792 13.6613 93.376 13.896C92.9707 14.1413 92.2347 14.2747 91.168 14.296V12.824C91.68 12.8027 92.064 12.728 92.32 12.6C92.5867 12.4827 92.7627 12.28 92.848 11.992L93.024 11.432L90.384 3.4Z"/>
</mask>
<path d="M8.832 6.472V11H7.168V6.472L4 0.52H5.856L7.936 4.92H8.064L10.144 0.52H12L8.832 6.472ZM15.504 7.208C15.504 5.91733 15.792 4.94133 16.368 4.28C16.944 3.608 17.744 3.272 18.768 3.272C19.792 3.272 20.5813 3.576 21.136 4.184C21.7013 4.78133 21.9947 5.66133 22.016 6.824L21.952 8.008H17.28C17.376 9.16 17.952 9.736 19.008 9.736C19.744 9.736 20.5227 9.60267 21.344 9.336L21.68 10.728C21.3387 10.8453 20.896 10.9467 20.352 11.032C19.808 11.128 19.36 11.176 19.008 11.176C16.672 11.176 15.504 9.85333 15.504 7.208ZM18.832 4.76C18.3307 4.76 17.952 4.90933 17.696 5.208C17.4507 5.496 17.312 5.98133 17.28 6.664H20.24C20.24 5.39467 19.7707 4.76 18.832 4.76ZM26.448 10.648L26.8 9.192C27.8133 9.512 28.6187 9.672 29.216 9.672C29.8133 9.672 30.2187 9.61333 30.432 9.496C30.6453 9.38933 30.752 9.19733 30.752 8.92C30.752 8.64267 30.656 8.44533 30.464 8.328C30.272 8.21067 29.9093 8.088 29.376 7.96C28.32 7.704 27.584 7.42133 27.168 7.112C26.752 6.792 26.544 6.27467 26.544 5.56C26.544 4.03467 27.5253 3.272 29.488 3.272C30.3307 3.272 31.3067 3.41067 32.416 3.688L32.112 5.208C31.056 4.90933 30.24 4.76 29.664 4.76C29.088 4.76 28.6987 4.81333 28.496 4.92C28.304 5.016 28.208 5.18667 28.208 5.432C28.208 5.67733 28.304 5.85867 28.496 5.976C28.6987 6.08267 29.2107 6.248 30.032 6.472C30.8533 6.696 31.456 6.95733 31.84 7.256C32.224 7.544 32.416 8.04 32.416 8.744C32.416 10.3547 31.424 11.16 29.44 11.16C28.512 11.16 27.5147 10.9893 26.448 10.648ZM37.104 4.872V3.4H38.4V1.576L40.048 1.416V3.4H43.04V4.872H40.048V8.072C40.048 8.65867 40.1067 9.07467 40.224 9.32C40.3413 9.55467 40.5813 9.672 40.944 9.672C41.5733 9.672 42.3093 9.57067 43.152 9.368L43.424 10.792C42.496 11.0373 41.6693 11.16 40.944 11.16C39.92 11.16 39.2373 10.9307 38.896 10.472C38.5653 10.0133 38.4 9.21333 38.4 8.072V4.872H37.104ZM47.664 7.208C47.664 5.91733 47.952 4.94133 48.528 4.28C49.104 3.608 49.904 3.272 50.928 3.272C51.952 3.272 52.7413 3.576 53.296 4.184C53.8613 4.78133 54.1547 5.66133 54.176 6.824L54.112 8.008H49.44C49.536 9.16 50.112 9.736 51.168 9.736C51.904 9.736 52.6827 9.60267 53.504 9.336L53.84 10.728C53.4987 10.8453 53.056 10.9467 52.512 11.032C51.968 11.128 51.52 11.176 51.168 11.176C48.832 11.176 47.664 9.85333 47.664 7.208ZM50.992 4.76C50.4907 4.76 50.112 4.90933 49.856 5.208C49.6107 5.496 49.472 5.98133 49.44 6.664H52.4C52.4 5.39467 51.9307 4.76 50.992 4.76ZM58.576 11V9.528H60.128V4.872H58.576V3.4H61.776L61.808 4.168C62.6187 3.70933 63.5467 3.42133 64.592 3.304H65.024V4.904H64.592C63.4187 5.01067 62.4907 5.256 61.808 5.64V9.56H64.192V11H58.576ZM75.616 0.327999V9.672L75.776 11L74.16 11.16L74.016 10.424C73.3227 10.9253 72.6453 11.176 71.984 11.176C70.992 11.176 70.2453 10.888 69.744 10.312C69.2427 9.72533 68.992 8.73867 68.992 7.352C68.992 5.96533 69.296 4.94133 69.904 4.28C70.512 3.608 71.3013 3.272 72.272 3.272C72.8373 3.272 73.408 3.39467 73.984 3.64V0.327999H75.616ZM72.096 9.64C72.6613 9.64 73.2907 9.352 73.984 8.776V5.208C73.4293 4.94133 72.8853 4.808 72.352 4.808C71.296 4.808 70.768 5.656 70.768 7.352C70.768 8.87733 71.2107 9.64 72.096 9.64ZM82.496 9.624C82.7947 9.624 83.1253 9.55467 83.488 9.416C83.8507 9.27733 84.1387 9.12267 84.352 8.952V7.832C83.712 7.77867 83.1893 7.752 82.784 7.752C81.8987 7.752 81.456 8.08267 81.456 8.744C81.456 9.33067 81.8027 9.624 82.496 9.624ZM82.24 11.176C80.5333 11.176 79.68 10.3653 79.68 8.744C79.68 7.88 79.952 7.27733 80.496 6.936C81.0507 6.584 81.8133 6.408 82.784 6.408C83.2427 6.408 83.7653 6.43467 84.352 6.488C84.352 5.848 84.2613 5.41067 84.08 5.176C83.8987 4.94133 83.584 4.824 83.136 4.824C82.688 4.824 82.1653 4.87733 81.568 4.984C80.9707 5.09067 80.512 5.19733 80.192 5.304L79.888 3.784C81.008 3.44267 82.1013 3.272 83.168 3.272C84.2347 3.272 84.9707 3.50667 85.376 3.976C85.792 4.44533 86 5.24 86 6.36V9.608L86.176 11.016L84.528 11.176L84.368 10.44C83.472 10.9307 82.7627 11.176 82.24 11.176ZM90.384 3.4H92.128L93.792 8.84H93.92L95.504 3.4H97.232L94.4 12.296C94.1333 13.128 93.792 13.6613 93.376 13.896C92.9707 14.1413 92.2347 14.2747 91.168 14.296V12.824C91.68 12.8027 92.064 12.728 92.32 12.6C92.5867 12.4827 92.7627 12.28 92.848 11.992L93.024 11.432L90.384 3.4Z" fill="white"/>
<path d="M8.832 6.472L7.94925 6.00215L7.832 6.22244V6.472H8.832ZM8.832 11V12H9.832V11H8.832ZM7.168 11H6.168V12H7.168V11ZM7.168 6.472H8.168V6.22244L8.05075 6.00215L7.168 6.472ZM4 0.52V-0.48H2.33491L3.11725 0.989849L4 0.52ZM5.856 0.52L6.76007 0.0926199L6.48938 -0.48H5.856V0.52ZM7.936 4.92L7.03193 5.34738L7.30262 5.92H7.936V4.92ZM8.064 4.92V5.92H8.69738L8.96807 5.34738L8.064 4.92ZM10.144 0.52V-0.48H9.51062L9.23993 0.0926199L10.144 0.52ZM12 0.52L12.8827 0.989849L13.6651 -0.48H12V0.52ZM7.832 6.472V11H9.832V6.472H7.832ZM8.832 10H7.168V12H8.832V10ZM8.168 11V6.472H6.168V11H8.168ZM8.05075 6.00215L4.88275 0.0501504L3.11725 0.989849L6.28525 6.94185L8.05075 6.00215ZM4 1.52H5.856V-0.48H4V1.52ZM4.95193 0.947379L7.03193 5.34738L8.84007 4.49262L6.76007 0.0926199L4.95193 0.947379ZM7.936 5.92H8.064V3.92H7.936V5.92ZM8.96807 5.34738L11.0481 0.947379L9.23993 0.0926199L7.15993 4.49262L8.96807 5.34738ZM10.144 1.52H12V-0.48H10.144V1.52ZM11.1173 0.0501505L7.94925 6.00215L9.71475 6.94185L12.8827 0.989849L11.1173 0.0501505ZM16.368 4.28L17.1221 4.9368L17.1273 4.93079L16.368 4.28ZM21.136 4.184L20.3972 4.85796L20.4034 4.86473L20.4097 4.87138L21.136 4.184ZM22.016 6.824L23.0145 6.87798L23.0165 6.84184L23.0158 6.80565L22.016 6.824ZM21.952 8.008V9.008H22.8994L22.9505 8.06198L21.952 8.008ZM17.28 8.008V7.008H16.1932L16.2835 8.09105L17.28 8.008ZM21.344 9.336L22.3161 9.10136L22.0626 8.0513L21.0352 8.38488L21.344 9.336ZM21.68 10.728L22.0051 11.6737L22.8656 11.3779L22.6521 10.4934L21.68 10.728ZM20.352 11.032L20.197 10.0441L20.1876 10.0456L20.1782 10.0472L20.352 11.032ZM17.696 5.208L16.9367 4.55721L16.9348 4.55953L17.696 5.208ZM17.28 6.664L16.2811 6.61718L16.232 7.664H17.28V6.664ZM20.24 6.664V7.664H21.24V6.664H20.24ZM16.504 7.208C16.504 6.04763 16.7649 5.34683 17.1221 4.93678L15.6139 3.62322C14.8191 4.53584 14.504 5.78704 14.504 7.208H16.504ZM17.1273 4.93079C17.4825 4.51636 17.985 4.272 18.768 4.272V2.272C17.503 2.272 16.4055 2.69964 15.6087 3.62921L17.1273 4.93079ZM18.768 4.272C19.5846 4.272 20.0766 4.5065 20.3972 4.85796L21.8748 3.51004C21.0861 2.6455 19.9994 2.272 18.768 2.272V4.272ZM20.4097 4.87138C20.744 5.22463 20.9975 5.82606 21.0162 6.84235L23.0158 6.80565C22.9918 5.4966 22.6586 4.33803 21.8623 3.49661L20.4097 4.87138ZM21.0175 6.77002L20.9535 7.95402L22.9505 8.06198L23.0145 6.87798L21.0175 6.77002ZM21.952 7.008H17.28V9.008H21.952V7.008ZM16.2835 8.09105C16.343 8.80537 16.5636 9.49777 17.0769 10.0111C17.6034 10.5376 18.2968 10.736 19.008 10.736V8.736C18.6632 8.736 18.5406 8.64639 18.4911 8.59689C18.4284 8.53423 18.313 8.36263 18.2765 7.92495L16.2835 8.09105ZM19.008 10.736C19.8652 10.736 20.7486 10.5807 21.6528 10.2871L21.0352 8.38488C20.2967 8.62463 19.6228 8.736 19.008 8.736V10.736ZM20.3719 9.57064L20.7079 10.9626L22.6521 10.4934L22.3161 9.10136L20.3719 9.57064ZM21.3549 9.78231C21.0897 9.87348 20.7099 9.96363 20.197 10.0441L20.507 12.0199C21.0821 11.9297 21.5876 11.8172 22.0051 11.6737L21.3549 9.78231ZM20.1782 10.0472C19.6632 10.1381 19.2787 10.176 19.008 10.176V12.176C19.4413 12.176 19.9528 12.1179 20.5258 12.0168L20.1782 10.0472ZM19.008 10.176C18.0286 10.176 17.4672 9.90446 17.1296 9.52208C16.771 9.11597 16.504 8.405 16.504 7.208H14.504C14.504 8.65633 14.821 9.92936 15.6304 10.8459C16.4608 11.7862 17.6514 12.176 19.008 12.176V10.176ZM18.832 3.76C18.125 3.76 17.4325 3.97887 16.9367 4.55721L18.4553 5.85879C18.4715 5.8398 18.5364 5.76 18.832 5.76V3.76ZM16.9348 4.55953C16.4692 5.10603 16.3161 5.87047 16.2811 6.61718L18.2789 6.71082C18.3079 6.09219 18.4321 5.88597 18.4572 5.85647L16.9348 4.55953ZM17.28 7.664H20.24V5.664H17.28V7.664ZM21.24 6.664C21.24 5.93535 21.1105 5.20728 20.692 4.64142C20.2318 4.01909 19.5507 3.76 18.832 3.76V5.76C18.9549 5.76 19.015 5.7807 19.0371 5.79066C19.0535 5.79806 19.066 5.80631 19.084 5.83058C19.1348 5.89939 19.24 6.12331 19.24 6.664H21.24ZM26.448 10.648L25.476 10.413L25.2575 11.317L26.1432 11.6004L26.448 10.648ZM26.8 9.192L27.1011 8.23842L26.0797 7.91586L25.828 8.95701L26.8 9.192ZM30.432 9.496L29.9848 8.60157L29.9673 8.61034L29.9501 8.61978L30.432 9.496ZM30.464 8.328L30.9855 7.47472L30.9855 7.47472L30.464 8.328ZM29.376 7.96L29.1404 8.93185L29.1426 8.93239L29.376 7.96ZM27.168 7.112L26.5583 7.90462L26.5648 7.9096L26.5713 7.91446L27.168 7.112ZM32.416 3.688L33.3966 3.88412L33.5836 2.94912L32.6585 2.71786L32.416 3.688ZM32.112 5.208L31.8398 6.17025L32.8805 6.46458L33.0926 5.40412L32.112 5.208ZM28.496 4.92L28.9432 5.81443L28.9525 5.80977L28.9617 5.80492L28.496 4.92ZM28.496 5.976L27.9746 6.82928L28.0019 6.84599L28.0303 6.86092L28.496 5.976ZM30.032 6.472L29.7689 7.43676L29.7689 7.43676L30.032 6.472ZM31.84 7.256L31.2261 8.04535L31.233 8.05074L31.24 8.056L31.84 7.256ZM27.42 10.883L27.772 9.42699L25.828 8.95701L25.476 10.413L27.42 10.883ZM26.4989 10.1456C27.5463 10.4764 28.4664 10.672 29.216 10.672V8.672C28.7709 8.672 28.0804 8.54765 27.1011 8.23842L26.4989 10.1456ZM29.216 10.672C29.543 10.672 29.845 10.6562 30.1112 10.6177C30.363 10.5813 30.6543 10.515 30.9139 10.3722L29.9501 8.61978C29.9964 8.59432 29.9783 8.61608 29.8248 8.63831C29.6856 8.65845 29.4864 8.672 29.216 8.672V10.672ZM30.8792 10.3904C31.1499 10.2551 31.3865 10.045 31.5462 9.75764C31.701 9.47898 31.752 9.18479 31.752 8.92H29.752C29.752 8.93254 29.7497 8.87302 29.7978 8.78636C29.8508 8.69096 29.9274 8.63025 29.9848 8.60157L30.8792 10.3904ZM31.752 8.92C31.752 8.38808 31.5468 7.81777 30.9855 7.47472L29.9426 9.18128C29.8798 9.14296 29.8186 9.07921 29.7808 9.00147C29.7473 8.93274 29.752 8.89406 29.752 8.92H31.752ZM30.9855 7.47472C30.6442 7.2662 30.1399 7.11494 29.6094 6.98761L29.1426 8.93239C29.3913 8.99207 29.5842 9.04677 29.7276 9.09528C29.7988 9.11936 29.8523 9.14007 29.8909 9.15677C29.9308 9.17406 29.9453 9.18296 29.9426 9.18128L30.9855 7.47472ZM29.6116 6.98815C28.5743 6.73668 28.0083 6.4907 27.7647 6.30954L26.5713 7.91446C27.1597 8.35196 28.0657 8.67132 29.1404 8.93185L29.6116 6.98815ZM27.7777 6.31938C27.6896 6.2516 27.544 6.0845 27.544 5.56H25.544C25.544 6.46483 25.8144 7.3324 26.5583 7.90462L27.7777 6.31938ZM27.544 5.56C27.544 5.02825 27.7022 4.78236 27.8936 4.63358C28.133 4.44759 28.6086 4.272 29.488 4.272V2.272C28.4048 2.272 27.4084 2.47774 26.6664 3.05442C25.8765 3.66831 25.544 4.56641 25.544 5.56H27.544ZM29.488 4.272C30.2258 4.272 31.1173 4.39411 32.1735 4.65814L32.6585 2.71786C31.496 2.42723 30.4356 2.272 29.488 2.272V4.272ZM31.4354 3.49188L31.1314 5.01188L33.0926 5.40412L33.3966 3.88412L31.4354 3.49188ZM32.3842 4.24575C31.3042 3.94032 30.3811 3.76 29.664 3.76V5.76C30.0989 5.76 30.8078 5.87835 31.8398 6.17025L32.3842 4.24575ZM29.664 3.76C29.3494 3.76 29.0594 3.77431 28.8043 3.80925C28.5646 3.84208 28.2828 3.90217 28.0303 4.03508L28.9617 5.80492C28.9119 5.83116 28.9261 5.81125 29.0757 5.79075C29.21 5.77236 29.4026 5.76 29.664 5.76V3.76ZM28.0488 4.02557C27.7921 4.15392 27.5637 4.35362 27.4084 4.62974C27.2575 4.89808 27.208 5.18038 27.208 5.432H29.208C29.208 5.43829 29.2065 5.51259 29.1516 5.61026C29.0923 5.71572 29.0079 5.78208 28.9432 5.81443L28.0488 4.02557ZM27.208 5.432C27.208 5.98787 27.4544 6.5114 27.9746 6.82928L29.0175 5.12272C29.0594 5.14834 29.1198 5.20102 29.1638 5.28411C29.2057 5.36327 29.208 5.42332 29.208 5.432H27.208ZM28.0303 6.86092C28.3506 7.02952 28.9822 7.22223 29.7689 7.43676L30.2951 5.50724C29.8918 5.39725 29.5748 5.30444 29.3393 5.22838C29.2216 5.19038 29.1301 5.15843 29.0617 5.1324C28.9887 5.10462 28.9611 5.09074 28.9617 5.09108L28.0303 6.86092ZM29.7689 7.43676C30.544 7.64817 30.9968 7.86701 31.2261 8.04535L32.4539 6.46665C31.9152 6.04765 31.1626 5.74383 30.2951 5.50724L29.7689 7.43676ZM31.24 8.056C31.2705 8.07886 31.416 8.20112 31.416 8.744H33.416C33.416 7.87888 33.1775 7.00914 32.44 6.456L31.24 8.056ZM31.416 8.744C31.416 9.33366 31.2446 9.61493 31.0417 9.77963C30.799 9.97671 30.3226 10.16 29.44 10.16V12.16C30.5414 12.16 31.553 11.9406 32.3023 11.3324C33.0914 10.6917 33.416 9.765 33.416 8.744H31.416ZM29.44 10.16C28.6343 10.16 27.7406 10.0117 26.7528 9.69558L26.1432 11.6004C27.2887 11.967 28.3897 12.16 29.44 12.16V10.16ZM37.104 4.872H36.104V5.872H37.104V4.872ZM37.104 3.4V2.4H36.104V3.4H37.104ZM38.4 3.4V4.4H39.4V3.4H38.4ZM38.4 1.576L38.3034 0.580679L37.4 0.668385V1.576H38.4ZM40.048 1.416H41.048V0.31421L39.9514 0.420679L40.048 1.416ZM40.048 3.4H39.048V4.4H40.048V3.4ZM43.04 3.4H44.04V2.4H43.04V3.4ZM43.04 4.872V5.872H44.04V4.872H43.04ZM40.048 4.872V3.872H39.048V4.872H40.048ZM40.224 9.32L39.3219 9.75146L39.3257 9.75937L39.3296 9.76721L40.224 9.32ZM43.152 9.368L44.1342 9.18038L43.9375 8.15056L42.9182 8.39572L43.152 9.368ZM43.424 10.792L43.6796 11.7588L44.5812 11.5204L44.4062 10.6044L43.424 10.792ZM38.896 10.472L38.0848 11.0568L38.0892 11.0629L38.0938 11.069L38.896 10.472ZM38.4 4.872H39.4V3.872H38.4V4.872ZM38.104 4.872V3.4H36.104V4.872H38.104ZM37.104 4.4H38.4V2.4H37.104V4.4ZM39.4 3.4V1.576H37.4V3.4H39.4ZM38.4966 2.57132L40.1446 2.41132L39.9514 0.420679L38.3034 0.580679L38.4966 2.57132ZM39.048 1.416V3.4H41.048V1.416H39.048ZM40.048 4.4H43.04V2.4H40.048V4.4ZM42.04 3.4V4.872H44.04V3.4H42.04ZM43.04 3.872H40.048V5.872H43.04V3.872ZM39.048 4.872V8.072H41.048V4.872H39.048ZM39.048 8.072C39.048 8.67398 39.1002 9.28792 39.3219 9.75146L41.1261 8.88854C41.1287 8.89394 41.1041 8.83995 41.0822 8.68436C41.0614 8.53671 41.048 8.33541 41.048 8.072H39.048ZM39.3296 9.76721C39.6799 10.468 40.3696 10.672 40.944 10.672V8.672C40.8633 8.672 40.8746 8.65794 40.9312 8.68562C40.9619 8.7006 40.9997 8.72504 41.0368 8.7616C41.074 8.79831 41.1009 8.83764 41.1184 8.87279L39.3296 9.76721ZM40.944 10.672C41.6753 10.672 42.4931 10.555 43.3858 10.3403L42.9182 8.39572C42.1256 8.58635 41.4713 8.672 40.944 8.672V10.672ZM42.1698 9.55562L42.4418 10.9796L44.4062 10.6044L44.1342 9.18038L42.1698 9.55562ZM43.1684 9.82521C42.2987 10.0551 41.5604 10.16 40.944 10.16V12.16C41.7782 12.16 42.6933 12.0195 43.6796 11.7588L43.1684 9.82521ZM40.944 10.16C39.9961 10.16 39.743 9.93516 39.6982 9.87499L38.0938 11.069C38.7317 11.9262 39.8439 12.16 40.944 12.16V10.16ZM39.7072 9.8872C39.5731 9.7012 39.4 9.18069 39.4 8.072H37.4C37.4 9.24598 37.5576 10.3255 38.0848 11.0568L39.7072 9.8872ZM39.4 8.072V4.872H37.4V8.072H39.4ZM38.4 3.872H37.104V5.872H38.4V3.872ZM48.528 4.28L49.2821 4.9368L49.2873 4.93079L48.528 4.28ZM53.296 4.184L52.5572 4.85796L52.5634 4.86473L52.5697 4.87138L53.296 4.184ZM54.176 6.824L55.1745 6.87798L55.1765 6.84184L55.1758 6.80565L54.176 6.824ZM54.112 8.008V9.008H55.0594L55.1105 8.06198L54.112 8.008ZM49.44 8.008V7.008H48.3532L48.4435 8.09105L49.44 8.008ZM53.504 9.336L54.4761 9.10136L54.2226 8.0513L53.1952 8.38488L53.504 9.336ZM53.84 10.728L54.1651 11.6737L55.0256 11.3779L54.8121 10.4934L53.84 10.728ZM52.512 11.032L52.357 10.0441L52.3476 10.0456L52.3382 10.0472L52.512 11.032ZM49.856 5.208L49.0967 4.55721L49.0948 4.55953L49.856 5.208ZM49.44 6.664L48.4411 6.61718L48.392 7.664H49.44V6.664ZM52.4 6.664V7.664H53.4V6.664H52.4ZM48.664 7.208C48.664 6.04763 48.9249 5.34683 49.2821 4.93678L47.7739 3.62322C46.9791 4.53584 46.664 5.78704 46.664 7.208H48.664ZM49.2873 4.93079C49.6425 4.51636 50.145 4.272 50.928 4.272V2.272C49.663 2.272 48.5655 2.69964 47.7687 3.62921L49.2873 4.93079ZM50.928 4.272C51.7446 4.272 52.2366 4.5065 52.5572 4.85796L54.0348 3.51004C53.2461 2.6455 52.1594 2.272 50.928 2.272V4.272ZM52.5697 4.87138C52.904 5.22463 53.1575 5.82606 53.1762 6.84235L55.1758 6.80565C55.1518 5.4966 54.8186 4.33803 54.0223 3.49661L52.5697 4.87138ZM53.1775 6.77002L53.1135 7.95402L55.1105 8.06198L55.1745 6.87798L53.1775 6.77002ZM54.112 7.008H49.44V9.008H54.112V7.008ZM48.4435 8.09105C48.503 8.80537 48.7236 9.49777 49.2369 10.0111C49.7634 10.5376 50.4568 10.736 51.168 10.736V8.736C50.8232 8.736 50.7006 8.64639 50.6511 8.59689C50.5884 8.53423 50.473 8.36263 50.4365 7.92495L48.4435 8.09105ZM51.168 10.736C52.0252 10.736 52.9086 10.5807 53.8128 10.2871L53.1952 8.38488C52.4567 8.62463 51.7828 8.736 51.168 8.736V10.736ZM52.5319 9.57064L52.8679 10.9626L54.8121 10.4934L54.4761 9.10136L52.5319 9.57064ZM53.5149 9.78231C53.2497 9.87348 52.8699 9.96363 52.357 10.0441L52.667 12.0199C53.2421 11.9297 53.7476 11.8172 54.1651 11.6737L53.5149 9.78231ZM52.3382 10.0472C51.8232 10.1381 51.4387 10.176 51.168 10.176V12.176C51.6013 12.176 52.1128 12.1179 52.6858 12.0168L52.3382 10.0472ZM51.168 10.176C50.1886 10.176 49.6272 9.90446 49.2896 9.52208C48.931 9.11597 48.664 8.405 48.664 7.208H46.664C46.664 8.65633 46.981 9.92936 47.7904 10.8459C48.6208 11.7862 49.8114 12.176 51.168 12.176V10.176ZM50.992 3.76C50.285 3.76 49.5925 3.97887 49.0967 4.55721L50.6153 5.85879C50.6315 5.8398 50.6964 5.76 50.992 5.76V3.76ZM49.0948 4.55953C48.6292 5.10603 48.4761 5.87047 48.4411 6.61718L50.4389 6.71082C50.4679 6.09219 50.5921 5.88597 50.6172 5.85647L49.0948 4.55953ZM49.44 7.664H52.4V5.664H49.44V7.664ZM53.4 6.664C53.4 5.93535 53.2705 5.20728 52.852 4.64142C52.3918 4.01909 51.7107 3.76 50.992 3.76V5.76C51.1149 5.76 51.175 5.7807 51.1971 5.79066C51.2135 5.79806 51.226 5.80631 51.244 5.83058C51.2948 5.89939 51.4 6.12331 51.4 6.664H53.4ZM58.576 11H57.576V12H58.576V11ZM58.576 9.528V8.528H57.576V9.528H58.576ZM60.128 9.528V10.528H61.128V9.528H60.128ZM60.128 4.872H61.128V3.872H60.128V4.872ZM58.576 4.872H57.576V5.872H58.576V4.872ZM58.576 3.4V2.4H57.576V3.4H58.576ZM61.776 3.4L62.7751 3.35837L62.7352 2.4H61.776V3.4ZM61.808 4.168L60.8089 4.20963L60.877 5.84374L62.3004 5.03835L61.808 4.168ZM64.592 3.304V2.304H64.5361L64.4805 2.31024L64.592 3.304ZM65.024 3.304H66.024V2.304H65.024V3.304ZM65.024 4.904V5.904H66.024V4.904H65.024ZM64.592 4.904V3.904H64.5466L64.5015 3.90811L64.592 4.904ZM61.808 5.64L61.3177 4.76842L60.808 5.05515V5.64H61.808ZM61.808 9.56H60.808V10.56H61.808V9.56ZM64.192 9.56H65.192V8.56H64.192V9.56ZM64.192 11V12H65.192V11H64.192ZM59.576 11V9.528H57.576V11H59.576ZM58.576 10.528H60.128V8.528H58.576V10.528ZM61.128 9.528V4.872H59.128V9.528H61.128ZM60.128 3.872H58.576V5.872H60.128V3.872ZM59.576 4.872V3.4H57.576V4.872H59.576ZM58.576 4.4H61.776V2.4H58.576V4.4ZM60.7769 3.44163L60.8089 4.20963L62.8071 4.12637L62.7751 3.35837L60.7769 3.44163ZM62.3004 5.03835C62.9795 4.65414 63.7749 4.40199 64.7035 4.29776L64.4805 2.31024C63.3184 2.44067 62.2578 2.76453 61.3156 3.29765L62.3004 5.03835ZM64.592 4.304H65.024V2.304H64.592V4.304ZM64.024 3.304V4.904H66.024V3.304H64.024ZM65.024 3.904H64.592V5.904H65.024V3.904ZM64.5015 3.90811C63.252 4.0217 62.1694 4.28936 61.3177 4.76842L62.2983 6.51158C62.8119 6.22264 63.5854 5.99964 64.6825 5.89989L64.5015 3.90811ZM60.808 5.64V9.56H62.808V5.64H60.808ZM61.808 10.56H64.192V8.56H61.808V10.56ZM63.192 9.56V11H65.192V9.56H63.192ZM64.192 10H58.576V12H64.192V10ZM75.616 0.327999H76.616V-0.672001H75.616V0.327999ZM75.616 9.672H74.616V9.73202L74.6232 9.79162L75.616 9.672ZM75.776 11L75.8745 11.9951L76.891 11.8945L76.7688 10.8804L75.776 11ZM74.16 11.16L73.1786 11.352L73.3533 12.2448L74.2585 12.1551L74.16 11.16ZM74.016 10.424L74.9974 10.232L74.6972 8.69744L73.4301 9.61365L74.016 10.424ZM69.744 10.312L68.9837 10.9617L68.9897 10.9685L69.744 10.312ZM69.904 4.28L70.6402 4.95682L70.6455 4.95091L69.904 4.28ZM73.984 3.64L73.5921 4.56002L74.984 5.15285V3.64H73.984ZM73.984 0.327999V-0.672001H72.984V0.327999H73.984ZM73.984 8.776L74.623 9.54519L74.984 9.2453V8.776H73.984ZM73.984 5.208H74.984V4.5792L74.4173 4.30675L73.984 5.208ZM74.616 0.327999V9.672H76.616V0.327999H74.616ZM74.6232 9.79162L74.7832 11.1196L76.7688 10.8804L76.6088 9.55238L74.6232 9.79162ZM75.6775 10.0049L74.0615 10.1649L74.2585 12.1551L75.8745 11.9951L75.6775 10.0049ZM75.1414 10.968L74.9974 10.232L73.0346 10.616L73.1786 11.352L75.1414 10.968ZM73.4301 9.61365C72.8572 10.0279 72.3806 10.176 71.984 10.176V12.176C72.9101 12.176 73.7882 11.8228 74.6019 11.2344L73.4301 9.61365ZM71.984 10.176C71.189 10.176 70.7565 9.95217 70.4983 9.65548L68.9897 10.9685C69.7341 11.8238 70.795 12.176 71.984 12.176V10.176ZM70.5042 9.66235C70.2405 9.35371 69.992 8.67022 69.992 7.352H67.992C67.992 8.80711 68.2448 10.097 68.9838 10.9617L70.5042 9.66235ZM69.992 7.352C69.992 6.08455 70.2737 5.35545 70.6402 4.9568L69.1678 3.6032C68.3183 4.52722 67.992 5.84612 67.992 7.352H69.992ZM70.6455 4.95091C71.0493 4.50465 71.5613 4.272 72.272 4.272V2.272C71.0414 2.272 69.9747 2.71135 69.1625 3.60909L70.6455 4.95091ZM72.272 4.272C72.6889 4.272 73.1267 4.36177 73.5921 4.56002L74.3759 2.71998C73.6893 2.42756 72.9858 2.272 72.272 2.272V4.272ZM74.984 3.64V0.327999H72.984V3.64H74.984ZM73.984 1.328H75.616V-0.672001H73.984V1.328ZM72.096 10.64C72.9983 10.64 73.8504 10.1871 74.623 9.54519L73.345 8.00681C72.731 8.51691 72.3244 8.64 72.096 8.64V10.64ZM74.984 8.776V5.208H72.984V8.776H74.984ZM74.4173 4.30675C73.7482 3.98508 73.0568 3.808 72.352 3.808V5.808C72.7138 5.808 73.1104 5.89759 73.5507 6.10925L74.4173 4.30675ZM72.352 3.808C71.5024 3.808 70.7739 4.17855 70.3151 4.91544C69.9053 5.57365 69.768 6.43263 69.768 7.352H71.768C71.768 6.57537 71.8947 6.16235 72.0129 5.97256C72.0629 5.89217 72.1041 5.86298 72.131 5.84861C72.1603 5.83293 72.2237 5.808 72.352 5.808V3.808ZM69.768 7.352C69.768 8.17865 69.8822 8.96189 70.2351 9.56999C70.6363 10.2611 71.2986 10.64 72.096 10.64V8.64C72.0218 8.64 72.0052 8.62533 72.013 8.62983C72.021 8.63444 72.001 8.6282 71.9649 8.56601C71.8752 8.41144 71.768 8.05069 71.768 7.352H69.768ZM83.488 9.416L83.8451 10.3501L83.8451 10.3501L83.488 9.416ZM84.352 8.952L84.9767 9.73287L85.352 9.43262V8.952H84.352ZM84.352 7.832H85.352V6.91187L84.435 6.83545L84.352 7.832ZM80.496 6.936L81.0275 7.78307L81.0318 7.78033L80.496 6.936ZM84.352 6.488L84.2615 7.48389L85.352 7.58303V6.488H84.352ZM84.08 5.176L84.8713 4.56455L84.8713 4.56455L84.08 5.176ZM81.568 4.984L81.3922 3.99957L81.568 4.984ZM80.192 5.304L79.2114 5.50012L79.4336 6.6109L80.5082 6.25268L80.192 5.304ZM79.888 3.784L79.5965 2.82744L78.7297 3.09159L78.9074 3.98012L79.888 3.784ZM85.376 3.976L84.6191 4.62967L84.6277 4.63931L85.376 3.976ZM86 9.608H85V9.67026L85.0077 9.73203L86 9.608ZM86.176 11.016L86.2726 12.0113L87.2958 11.912L87.1683 10.892L86.176 11.016ZM84.528 11.176L83.5508 11.3884L83.7397 12.2572L84.6246 12.1713L84.528 11.176ZM84.368 10.44L85.3452 10.2276L85.061 8.92037L83.8877 9.5629L84.368 10.44ZM82.496 10.624C82.9473 10.624 83.4009 10.5199 83.8451 10.3501L83.1309 8.48195C82.8497 8.58944 82.6421 8.624 82.496 8.624V10.624ZM83.8451 10.3501C84.2672 10.1887 84.6565 9.989 84.9767 9.73287L83.7273 8.17113C83.6208 8.25633 83.4341 8.36599 83.1309 8.48195L83.8451 10.3501ZM85.352 8.952V7.832H83.352V8.952H85.352ZM84.435 6.83545C83.7813 6.78098 83.2282 6.752 82.784 6.752V8.752C83.1505 8.752 83.6427 8.77635 84.269 8.82855L84.435 6.83545ZM82.784 6.752C82.2458 6.752 81.66 6.8474 81.1895 7.19884C80.6643 7.59121 80.456 8.16783 80.456 8.744H82.456C82.456 8.68921 82.4651 8.68853 82.4522 8.7175C82.4367 8.75224 82.4101 8.78348 82.3865 8.80116C82.3685 8.81458 82.3778 8.80101 82.4446 8.78437C82.5124 8.76749 82.6217 8.752 82.784 8.752V6.752ZM80.456 8.744C80.456 9.23931 80.6102 9.7783 81.0701 10.1674C81.4979 10.5294 82.0322 10.624 82.496 10.624V8.624C82.3899 8.624 82.3333 8.61242 82.3125 8.60655C82.2943 8.60144 82.3207 8.60573 82.3619 8.64061C82.3821 8.65766 82.4014 8.67841 82.418 8.70182C82.4345 8.72508 82.4451 8.74638 82.4514 8.76248C82.4637 8.79356 82.456 8.79435 82.456 8.744H80.456ZM82.24 10.176C81.5284 10.176 81.1804 10.0061 81.0088 9.843C80.8467 9.68904 80.68 9.38706 80.68 8.744H78.68C78.68 9.72227 78.94 10.6363 79.6313 11.293C80.3129 11.9406 81.245 12.176 82.24 12.176V10.176ZM80.68 8.744C80.68 8.09139 80.8721 7.88057 81.0275 7.78306L79.9645 6.08894C79.0319 6.67409 78.68 7.66861 78.68 8.744H80.68ZM81.0318 7.78033C81.367 7.5676 81.918 7.408 82.784 7.408V5.408C81.7087 5.408 80.7343 5.6004 79.9602 6.09167L81.0318 7.78033ZM82.784 7.408C83.2054 7.408 83.6969 7.43257 84.2615 7.48389L84.4425 5.49211C83.8337 5.43676 83.28 5.408 82.784 5.408V7.408ZM85.352 6.488C85.352 6.12644 85.3269 5.78427 85.2632 5.477C85.2013 5.17833 85.0898 4.84731 84.8713 4.56455L83.2887 5.78745C83.2516 5.73936 83.2761 5.74434 83.3048 5.883C83.3318 6.01307 83.352 6.20956 83.352 6.488H85.352ZM84.8713 4.56455C84.4195 3.97987 83.7311 3.824 83.136 3.824V5.824C83.2782 5.824 83.3435 5.84333 83.3586 5.84898C83.3643 5.85108 83.356 5.84871 83.3403 5.83751C83.3238 5.82582 83.3053 5.8089 83.2887 5.78745L84.8713 4.56455ZM83.136 3.824C82.6126 3.824 82.0287 3.88592 81.3922 3.99957L81.7438 5.96843C82.302 5.86875 82.7634 5.824 83.136 5.824V3.824ZM81.3922 3.99957C80.7784 4.10917 80.2642 4.22584 79.8758 4.35532L80.5082 6.25268C80.7598 6.16883 81.1629 6.07216 81.7438 5.96843L81.3922 3.99957ZM81.1726 5.10788L80.8686 3.58788L78.9074 3.98012L79.2114 5.50012L81.1726 5.10788ZM80.1795 4.74056C81.2142 4.42524 82.2093 4.272 83.168 4.272V2.272C81.9934 2.272 80.8018 2.46009 79.5965 2.82744L80.1795 4.74056ZM83.168 4.272C84.1437 4.272 84.5039 4.49611 84.6192 4.62962L86.1328 3.32238C85.4375 2.51722 84.3257 2.272 83.168 2.272V4.272ZM84.6277 4.63931C84.795 4.82813 85 5.31134 85 6.36H87C87 5.16866 86.789 4.06253 86.1243 3.31269L84.6277 4.63931ZM85 6.36V9.608H87V6.36H85ZM85.0077 9.73203L85.1837 11.14L87.1683 10.892L86.9923 9.48397L85.0077 9.73203ZM86.0794 10.0207L84.4314 10.1807L84.6246 12.1713L86.2726 12.0113L86.0794 10.0207ZM85.5052 10.9636L85.3452 10.2276L83.3908 10.6524L83.5508 11.3884L85.5052 10.9636ZM83.8877 9.5629C83.0234 10.0362 82.4997 10.176 82.24 10.176V12.176C83.0257 12.176 83.9206 11.8252 84.8483 11.3171L83.8877 9.5629ZM90.384 3.4V2.4H89.0027L89.434 3.71225L90.384 3.4ZM92.128 3.4L93.0843 3.1075L92.8679 2.4H92.128V3.4ZM93.792 8.84L92.8357 9.1325L93.0521 9.84H93.792V8.84ZM93.92 8.84V9.84H94.6704L94.8801 9.11957L93.92 8.84ZM95.504 3.4V2.4H94.7536L94.5439 3.12043L95.504 3.4ZM97.232 3.4L98.1849 3.70334L98.5998 2.4H97.232V3.4ZM94.4 12.296L95.3523 12.6012L95.3529 12.5993L94.4 12.296ZM93.376 13.896L92.8847 13.025L92.8713 13.0326L92.8582 13.0405L93.376 13.896ZM91.168 14.296H90.168V15.3162L91.188 15.2958L91.168 14.296ZM91.168 12.824L91.1264 11.8249L90.168 11.8648V12.824H91.168ZM92.32 12.6L91.9173 11.6847L91.8948 11.6946L91.8728 11.7056L92.32 12.6ZM92.848 11.992L91.894 11.6922L91.8915 11.7L91.8892 11.7079L92.848 11.992ZM93.024 11.432L93.978 11.7318L94.0744 11.4251L93.974 11.1197L93.024 11.432ZM90.384 4.4H92.128V2.4H90.384V4.4ZM91.1717 3.6925L92.8357 9.1325L94.7483 8.5475L93.0843 3.1075L91.1717 3.6925ZM93.792 9.84H93.92V7.84H93.792V9.84ZM94.8801 9.11957L96.4641 3.67957L94.5439 3.12043L92.9599 8.56043L94.8801 9.11957ZM95.504 4.4H97.232V2.4H95.504V4.4ZM96.2791 3.09665L93.4471 11.9927L95.3529 12.5993L98.1849 3.70334L96.2791 3.09665ZM93.4477 11.9908C93.2008 12.7612 92.9597 12.9827 92.8847 13.025L93.8673 14.767C94.6243 14.34 95.0659 13.4948 95.3523 12.6012L93.4477 11.9908ZM92.8582 13.0405C92.7013 13.1355 92.208 13.275 91.148 13.2962L91.188 15.2958C92.2614 15.2743 93.2401 15.1472 93.8938 14.7515L92.8582 13.0405ZM92.168 14.296V12.824H90.168V14.296H92.168ZM91.2096 13.8231C91.7685 13.7998 92.3215 13.7173 92.7672 13.4944L91.8728 11.7056C91.8065 11.7387 91.5915 11.8055 91.1264 11.8249L91.2096 13.8231ZM92.7227 13.5153C93.268 13.2754 93.6409 12.836 93.8068 12.2761L91.8892 11.7079C91.8854 11.7206 91.8831 11.7244 91.8844 11.7219C91.8859 11.7191 91.8899 11.7125 91.897 11.7043C91.9041 11.6961 91.9114 11.6897 91.9172 11.6856C91.9227 11.6816 91.9236 11.6819 91.9173 11.6847L92.7227 13.5153ZM93.802 12.2918L93.978 11.7318L92.07 11.1322L91.894 11.6922L93.802 12.2918ZM93.974 11.1197L91.334 3.08775L89.434 3.71225L92.074 11.7443L93.974 11.1197Z" fill="black" mask="url(#path-1-outside-1_551_1061)"/>
</g>
<defs>
<filter id="filter0_d_551_1061" x="0" y="0.328125" width="101.232" height="21.9688" filterUnits="userSpaceOnUse" color-interpolation-filters="sRGB">
<feFlood flood-opacity="0" result="BackgroundImageFix"/>
<feColorMatrix in="SourceAlpha" type="matrix" values="0 0 0 0 0 0 0 0 0 0 0 0 0 0 0 0 0 0 127 0" result="hardAlpha"/>
<feOffset dy="4"/>
<feGaussianBlur stdDeviation="2"/>
<feComposite in2="hardAlpha" operator="out"/>
<feColorMatrix type="matrix" values="0 0 0 0 0 0 0 0 0 0 0 0 0 0 0 0 0 0 0.25 0"/>
<feBlend mode="normal" in2="BackgroundImageFix" result="effect1_dropShadow_551_1061"/>
<feBlend mode="normal" in="SourceGraphic" in2="effect1_dropShadow_551_1061" result="shape"/>
</filter>
</defs>
</svg>
